#!OML:ASF F:\VICON\USERDATA\INSTALL\rory3\rory3.ASF
:FULLY-SPECIFIED
:DEGREES
300
root 0.657272 16.8547 6.69352 9.25055 -3.64961 -0.254611
lowerback -3.73186 1.49135 0.298174
upperback -4.29279 1.96317 -1.23586
thorax -2.26569 0.955101 -1.40241
lowerneck -15.2877 -0.129703 -0.754218
upperneck 41.8898 -0.28361 0.877359
head 18.2787 -0.11368 0.495308
rclavicle -2.65626e-014 -1.78906e-014
rhumerus -43.9685 -12.7659 -73.6973
rradius 26.6257
rwrist -9.94502
rhand -3.22873 13.0806
rfingers 7.12502
rthumb 22.4944 -15.6292
lclavicle -2.65626e-014 -1.78906e-014
lhumerus -34.1766 21.1237 65.6377
lradius 49.6268
lwrist -1.58527
lhand -1.86146 15.9546
lfingers 7.12502
lthumb 23.8063 44.4997
rfemur -34.1818 1.38164 22.7173
rtibia 52.2632
rfoot -13.5422 -21.1748
rtoes -9.45601
lfemur -18.0179 -11.3598 -24.5208
ltibia 31.2761
lfoot -25.6522 19.9568
ltoes 5.1444
301
root 0.658893 16.8761 6.8097 9.36438 -3.58639 -0.364593
lowerback -3.86197 1.47269 0.439638
upperback -4.13851 1.93837 -1.12518
thorax -2.03327 0.942509 -1.36158
lowerneck -15.3896 -0.0919061 -0.700114
upperneck 41.7337 -0.212991 0.808161
head 18.2111 -0.0852603 0.465695
rclavicle -2.68546e-014 -5.56597e-015
rhumerus -43.6977 -12.8656 -73.6231
rradius 26.7413
rwrist -10.5555
rhand -3.48863 12.8503
rfingers 7.12502
rthumb 22.2449 -15.8895
lclavicle -2.68546e-014 -5.56597e-015
lhumerus -33.4811 20.8444 66.0857
lradius 50.1463
lwrist -1.49781
lhand -1.96717 15.5182
lfingers 7.12502
lthumb 23.7049 44.0764
rfemur -34.6236 1.69591 22.6397
rtibia 50.2009
rfoot -14.6545 -21.6371
rtoes -8.28061
lfemur -17.4116 -11.9819 -24.4019
ltibia 30.7274
lfoot -26.4722 19.8099
ltoes 7.99993
302
root 0.657941 16.8846 6.9298 9.51293 -3.50331 -0.304448
lowerback -3.91964 1.45088 0.398788
upperback -4.22649 1.91017 -1.08647
thorax -2.09526 0.929365 -1.29966
lowerneck -15.1349 -0.0462953 -0.540273
upperneck 41.6902 -0.137819 0.665242
head 18.1145 -0.0489237 0.383429
rclavicle 1.30483e-014 -1.78906e-014
rhumerus -43.9464 -12.8705 -73.5
rradius 26.9269
rwrist -11.0609
rhand -3.73154 12.5741
rfingers 7.12502
rthumb 22.0117 -16.1933
lclavicle 1.30483e-014 -1.78906e-014
lhumerus -33.2392 20.5682 66.2515
lradius 50.5646
lwrist -1.63445
lhand -1.87398 15.857
lfingers 7.12502
lthumb 23.7943 44.4036
rfemur -35.0713 1.84885 22.3629
rtibia 48.0962
rfoot -15.6624 -21.962
rtoes -6.87003
lfemur -16.6249 -12.222 -24.5657
ltibia 29.9342
lfoot -26.8286 19.8355
ltoes 8.29114
303
root 0.638382 16.8793 7.04761 9.74031 -3.75095 -0.250839
lowerback -3.78645 1.51101 0.0853557
upperback -4.60233 1.99537 -0.980461
thorax -2.57063 0.979137 -1.02527
lowerneck -14.5302 -0.0480792 -0.585018
upperneck 41.6762 -0.148228 0.709836
head 17.9429 -0.0540174 0.409226
rclavicle -2.2208e-014 -2.98177e-015
rhumerus -44.7359 -13.0364 -73.0018
rradius 27.2928
rwrist -11.0694
rhand -3.69961 11.8421
rfingers 7.12502
rthumb 22.0424 -16.9217
lclavicle -2.2208e-014 -2.98177e-015
lhumerus -33.4885 19.9955 66.2826
lradius 51.0612
lwrist -1.52805
lhand -1.95435 16.4947
lfingers 7.12502
lthumb 23.7172 45.0513
rfemur -35.7046 2.74964 22.0548
rtibia 45.9044
rfoot -15.7054 -22.8121
rtoes -7.25827
lfemur -15.8127 -11.7842 -24.7497
ltibia 28.9942
lfoot -26.6087 20.1602
ltoes 5.30694
304
root 0.637129 16.8886 7.16555 9.84141 -3.60069 -0.0667379
lowerback -4.15901 1.45192 -0.00389282
upperback -4.26946 1.9222 -0.984104
thorax -2.02206 0.94747 -0.963222
lowerneck -15.0593 -0.0846004 -0.565163
upperneck 41.5721 -0.238741 0.769849
head 18.0249 -0.0778081 0.416895
rclavicle 2.08103e-015 1.21259e-014
rhumerus -44.1251 -13.9013 -72.5525
rradius 26.9968
rwrist -10.6239
rhand -3.42073 11.9959
rfingers 7.12502
rthumb 22.3101 -16.7361
lclavicle 2.08103e-015 1.21259e-014
lhumerus -32.6498 19.8171 66.6841
lradius 51.6367
lwrist -1.29786
lhand -1.82279 16.7534
lfingers 7.12502
lthumb 23.8434 45.2936
rfemur -36.0624 2.96971 21.5687
rtibia 43.5979
rfoot -15.8282 -23.218
rtoes -8.0738
lfemur -14.7738 -11.8012 -25.0843
ltibia 27.8831
lfoot -26.4086 20.3044
ltoes 4.21959
305
root 0.62634 16.9091 7.28364 10.0275 -3.64331 -0.250096
lowerback -4.21622 1.48546 0.0933886
upperback -4.281 1.96601 -0.885201
thorax -2.0015 0.968458 -0.913655
lowerneck -15.2101 -0.0938173 -0.3694
upperneck 41.5519 -0.284574 0.676631
head 18.0536 -0.0773738 0.329291
rclavicle -9.80257e-015 4.57205e-015
rhumerus -44.0452 -14.3522 -72.2163
rradius 26.6128
rwrist -10.3372
rhand -3.3227 12.4903
rfingers 7.12502
rthumb 22.4042 -16.2304
lclavicle -9.80257e-015 4.57205e-015
lhumerus -32.486 19.3783 66.8718
lradius 52.3879
lwrist -1.14602
lhand -1.81752 16.8088
lfingers 7.12502
lthumb 23.8484 45.3483
rfemur -36.376 3.72484 21.3906
rtibia 41.1027
rfoot -16.1822 -23.4133
rtoes -9.61117
lfemur -13.8718 -11.9292 -24.9174
ltibia 26.7954
lfoot -26.4472 20.3898
ltoes 6.14399
306
root 0.615825 16.9272 7.40255 10.2594 -3.60996 -0.340948
lowerback -4.32599 1.41961 0.0380993
upperback -4.4909 1.88058 -0.72947
thorax -2.16551 0.928665 -0.725915
lowerneck -14.7002 -0.032522 -0.194291
upperneck 41.4628 -0.176948 0.49727
head 17.8621 -0.0320694 0.233212
rclavicle -1.68843e-014 5.96354e-015
rhumerus -44.3232 -14.2839 -71.9206
rradius 26.356
rwrist -10.1411
rhand -3.43018 12.3472
rfingers 7.12502
rthumb 22.3011 -16.3859
lclavicle -1.68843e-014 5.96354e-015
lhumerus -32.774 18.9158 66.8857
lradius 53.0841
lwrist -0.759013
lhand -1.86734 17.3146
lfingers 7.12502
lthumb 23.8006 45.8604
rfemur -36.6036 4.49955 21.0314
rtibia 38.4186
rfoot -16.7181 -23.5888
rtoes -10.889
lfemur -13.0608 -12.0332 -24.8446
ltibia 25.8329
lfoot -26.55 20.3292
ltoes 7.65676
307
root 0.606506 16.9511 7.52324 10.5347 -3.46079 -0.314007
lowerback -4.5581 1.32026 -0.0297966
upperback -4.32997 1.75236 -0.650017
thorax -1.87569 0.868316 -0.600813
lowerneck -15.5201 0.0202032 -0.106783
upperneck 41.5523 -0.117368 0.470612
head 18.1358 0.00269622 0.217713
rclavicle 2.43837e-014 3.18055e-015
rhumerus -43.8763 -15.0741 -71.4668
rradius 26.0713
rwrist -9.28618
rhand -3.15759 12.3748
rfingers 7.12502
rthumb 22.5627 -16.3267
lclavicle 2.43837e-014 3.18055e-015
lhumerus -32.0682 19.0186 67.0703
lradius 53.3323
lwrist -0.703856
lhand -1.81291 17.4937
lfingers 7.12502
lthumb 23.8528 46.0326
rfemur -36.7522 5.16258 20.4768
rtibia 35.5889
rfoot -17.3293 -23.7445
rtoes -10.5389
lfemur -12.524 -12.1716 -24.8619
ltibia 24.9765
lfoot -25.8343 21.0737
ltoes 5.1743
308
root 0.592315 16.9837 7.64173 10.8286 -3.35606 -0.264402
lowerback -4.50309 1.26782 -0.202249
upperback -4.64164 1.68704 -0.524151
thorax -2.23808 0.841543 -0.383578
lowerneck -15.2802 0.0608757 -0.111139
upperneck 41.6906 -0.0187945 0.394971
head 18.1529 0.0314142 0.202512
rclavicle 1.52816e-015 -3.77691e-015
rhumerus -44.4345 -15.2956 -70.9025
rradius 26.2283
rwrist -8.98523
rhand -3.05245 12.526
rfingers 7.12502
rthumb 22.6636 -16.1632
lclavicle 1.52816e-015 -3.77691e-015
lhumerus -32.2867 18.7329 67.0562
lradius 53.5649
lwrist -0.638927
lhand -1.73125 17.386
lfingers 7.12502
lthumb 23.9311 45.9147
rfemur -36.9317 6.07302 19.7781
rtibia 32.809
rfoot -17.7136 -24.1208
rtoes -10.2392
lfemur -12.0667 -12.1994 -24.8131
ltibia 23.9967
lfoot -24.9604 21.7151
ltoes 3.12853
309
root 0.582402 17.0096 7.76303 11.1246 -3.16209 -0.328398
lowerback -4.84174 1.19105 -0.150299
upperback -4.61367 1.58641 -0.382903
thorax -2.02334 0.792205 -0.261848
lowerneck -15.4684 0.0503878 -0.189238
upperneck 41.6368 -0.00950698 0.396492
head 18.1716 0.0231651 0.219312
rclavicle -1.02809e-015 9.74045e-015
rhumerus -44.3193 -15.5177 -70.6218
rradius 26.2269
rwrist -8.72774
rhand -3.14792 12.344
rfingers 7.12502
rthumb 22.572 -16.3564
lclavicle -1.02809e-015 9.74045e-015
lhumerus -32.0048 18.5065 67.2466
lradius 53.8365
lwrist -0.364716
lhand -1.7394 17.6061
lfingers 7.12502
lthumb 23.9233 46.1358
rfemur -37.0876 7.07217 19.055
rtibia 30.1425
rfoot -18.4053 -24.5166
rtoes -10.2025
lfemur -11.402 -12.3148 -24.6296
ltibia 22.9901
lfoot -25.4151 21.0118
ltoes 6.0119
310
root 0.580828 17.0349 7.89413 11.4471 -2.7742 -0.183553
lowerback -5.2756 1.03379 -0.166898
upperback -4.63597 1.37894 -0.344203
thorax -1.80686 0.689471 -0.210558
lowerneck -15.6335 0.00778536 -0.164119
upperneck 41.6822 -0.0510068 0.308531
head 18.244 -0.00214515 0.165564
rclavicle 7.57362e-015 6.4605e-015
rhumerus -44.2355 -15.8639 -70.2509
rradius 25.9333
rwrist -8.28471
rhand -2.96423 12.1263
rfingers 7.12502
rthumb 22.7483 -16.5526
lclavicle 7.57362e-015 6.4605e-015
lhumerus -31.7261 18.4513 67.2627
lradius 53.8824
lwrist -0.497109
lhand -1.46004 17.537
lfingers 7.12502
lthumb 24.1912 46.0313
rfemur -37.3361 7.67564 18.0758
rtibia 27.8614
rfoot -19.0599 -24.8109
rtoes -9.06872
lfemur -10.5278 -12.497 -24.7981
ltibia 21.6602
lfoot -24.9941 21.1344
ltoes 5.48133
